<svg width="1440" height="937" viewBox="0 0 1440 937" fill="none" xmlns="http://www.w3.org/2000/svg">
<path fill-rule="evenodd" clip-rule="evenodd" d="M1454 936.135L1413.85 932.512C1372.48 928.889 1292.18 921.644 1210.67 918.021C1129.15 914.398 1048.85 914.398 967.333 896.284C885.817 878.17 805.517 841.942 724 841.942C642.483 841.942 562.183 878.17 480.667 870.925C399.15 863.679 318.85 812.959 237.333 798.468C155.817 783.977 75.5167 805.714 34.15 816.582L-6 827.451V762.24H34.15C75.5167 762.24 155.817 762.24 237.333 762.24C318.85 762.24 399.15 762.24 480.667 762.24C562.183 762.24 642.483 762.24 724 762.24C805.517 762.24 885.817 762.24 967.333 762.24C1048.85 762.24 1129.15 762.24 1210.67 762.24C1292.18 762.24 1372.48 762.24 1413.85 762.24H1450.96L1454 936.135Z" fill="url(#paint0_linear_4_7)"/>
<path d="M-6 -2H1450.96V762.24H-6V-2Z" fill="url(#paint1_linear_4_7)"/>
<g style="mix-blend-mode:overlay" opacity="0.3">
<path d="M1544.33 0H-14V908.236H1544.33V0Z" fill="url(#paint2_linear_4_7)"/>
<path d="M59.161 273.171L91.2714 285.908V393.273H103.018V312.152H130.179V175.909L164.662 168.194L222.799 193.696V335.485H235.783V273.506L253.337 268.237L280.338 283.273V403.302H301.517V354.787L327.179 345.311L370.833 372.239L369.77 414.597L388.795 423.665V482.049H402.492V459.604H418.081V404.612L428.896 392.021L469.187 396.387V460.696H481.953L483.903 426.868L506.902 420.186L534.864 429.357V470.972V617.769H27.8076V293.215L59.161 273.171Z" fill="url(#paint3_linear_4_7)"/>
<path d="M12.0874 628.205V497.26L69.758 488.133L163.717 518.031V551.568L185.929 552.267V525.775L287.107 509.036L326.728 518.031V631.291L12.0874 628.205Z" fill="url(#paint4_linear_4_7)"/>
<path d="M598.546 797.68H176.351L54.9254 601.946L171.606 594.465L178.578 598.584L598.546 797.68Z" fill="#F5DFB8"/>
<path d="M54.9255 601.946L176.351 797.68H27.7059V603.693L54.9255 601.946Z" fill="url(#paint5_linear_4_7)"/>
<path d="M1502.75 636.764V644.566L1209.9 650.519L900.189 633.358L901.018 628.962L1210.81 644.566L1502.75 636.764Z" fill="#505969"/>
<path d="M477.732 757.375L509.391 755.41L505.301 753.474L473.947 755.41L392.143 713.154L415.767 711.029L411.881 709.18L388.518 711.276L338.999 685.701L361.037 685.075L356.685 683.009L334.982 683.62L280.673 655.571L295.491 653.999L291.707 652.208L277.151 653.751L242.741 635.978L254.677 634.654L250.921 632.878L239.247 634.173L215.07 621.684L225.346 620.753L221.46 618.904L211.445 619.807L184.284 605.775L191.387 604.654L187.894 602.995L181.009 604.086L170.092 598.453L176.933 597.623L173.847 595.804L166.642 596.677L163.367 594.989L159.131 595.265L162.785 597.158L68.3023 608.613L63.266 601.408L60.7187 601.568L65.8424 608.904L59.6707 609.647L60.937 611.684L67.2688 610.913L74.3285 621.015L67.4144 622.106L68.6662 624.115L75.7258 622.994L81.6501 631.481L73.6735 632.194L74.9689 634.275L83.0911 633.547L94.6922 650.156L85.4492 651.175L86.7301 653.227L96.1187 652.194L109.568 671.437L98.7242 672.586L100.005 674.653L110.995 673.489L122.261 689.602L109.51 689.966L110.849 692.121L123.76 691.757L152.261 732.542L136.788 733.94L138.083 736.021L153.717 734.609L180.951 773.576L162.115 774.74L163.425 776.851L182.421 775.672L197.792 797.666H200.456L184.968 775.512L473.481 757.622L550.992 797.666H555.752L477.732 757.375ZM69.7579 610.636L166.264 598.933L177.399 604.683L76.7593 620.665L69.7579 610.636ZM78.1567 622.645L180.674 606.372L207.428 620.185L84.1974 631.291L78.1567 622.645ZM85.6239 633.358L211.023 622.063L235.346 634.625L97.1959 649.923L85.6239 633.358ZM98.6223 651.946L238.84 636.43L273.206 654.188L112.072 671.204L98.6223 651.946ZM113.513 673.256L276.758 656.007L330.498 683.765L124.91 689.544L113.513 673.256ZM126.395 691.698L334.501 685.847L384.472 711.669L154.779 732.339L126.395 691.698ZM183.513 773.43L156.235 734.391L388.096 713.532L469.711 755.686L183.513 773.43Z" fill="#DEC4A0"/>
<path d="M1103.8 582.732L1102.63 582.703L1115.81 620.796L1116.98 620.869L1103.8 582.732Z" fill="#DEC4A0"/>
<path d="M1061.34 581.67L1060.22 581.641L1051.37 617.55L1052.49 617.609L1061.34 581.67Z" fill="#DEC4A0"/>
<path d="M979.707 613.94L1020.96 580.665L1019.27 580.622L978.063 613.868L979.707 613.94Z" fill="#DEC4A0"/>
<path d="M1170.62 584.392L1169.52 584.363L1165.03 623.285L1166.13 623.343L1170.62 584.392Z" fill="#DEC4A0"/>
<path d="M1235.32 624.93L1205.72 585.251L1204.32 585.221L1233.99 624.974L1235.32 624.93Z" fill="#DEC4A0"/>
<path d="M980.188 568.977L916.229 572.223L915.778 573.33L979.969 570.069L980.188 568.977Z" fill="#DEC4A0"/>
<path d="M1255.5 584.042L1253.93 584.086L1296.65 623.3L1298.22 623.256L1255.5 584.042Z" fill="#DEC4A0"/>
<path d="M979.256 573.751L909.271 589.501L908.776 590.724L979.023 574.93L979.256 573.751Z" fill="#DEC4A0"/>
<path d="M961.178 548.657L991.076 559.283L994.205 559.239L964.438 548.657H961.178Z" fill="#DEC4A0"/>
<path d="M923.012 555.396L981.192 563.883L981.396 562.805L923.42 554.348L923.012 555.396Z" fill="#DEC4A0"/>
<path d="M980.566 579.661L978.106 579.603L978.135 579.414L901.629 608.467L901.076 609.836L980.566 579.661Z" fill="#DEC4A0"/>
<path d="M551.85 557.303L550.628 557.245L535.111 584.392L536.304 584.494L551.85 557.303Z" fill="#DEC4A0"/>
<path d="M586.042 579.035L574.368 558.453L573.087 558.395L584.892 579.21L586.042 579.035Z" fill="#DEC4A0"/>
<path d="M646.246 553.387L642.577 553.795L689.739 562.703L692.956 562.194L646.246 553.387Z" fill="#DEC4A0"/>
<path d="M1313.05 582.47L1311.42 582.514L1357.71 621.655L1359.36 621.611L1313.05 582.47Z" fill="#DEC4A0"/>
<path d="M511.69 555.251L509.58 555.135L465.635 578.482L467.63 578.642L511.69 555.251Z" fill="#DEC4A0"/>
<path d="M640.801 570.404L642.898 570.083L611.515 557.347L609.244 557.609L640.801 570.404Z" fill="#DEC4A0"/>
<path d="M682.024 549.298L676.362 549.938L739.185 554.916L743.814 554.188L682.024 549.298Z" fill="#DEC4A0"/>
<path d="M1366.34 581.015L1364.33 581.059L1427.7 619.792L1429.7 619.734L1366.34 581.015Z" fill="#DEC4A0"/>
<path d="M1502.75 615.541V614.333L1428.86 579.297L1426.46 579.37L1502.75 615.541Z" fill="#DEC4A0"/>
<path d="M466.189 552.907L463.627 552.776L411.837 573.897L414.224 574.101L466.189 552.907Z" fill="#DEC4A0"/>
<path d="M346.218 568.307L349.887 568.628L430.104 551.059L425.97 550.84L346.218 568.307Z" fill="#DEC4A0"/>
<path d="M700.99 547.129L781.514 548.249L786.841 547.405V547.23L709.505 546.153L700.99 547.129Z" fill="#DEC4A0"/>
<path d="M1133.42 555.586L1359.43 563.868L1502.75 577.682V569.123L1354.09 553.883L1203.29 547.944L1203.11 555.586H1133.42Z" fill="#C191C7"/>
<path d="M1500.17 593.783L1532.26 917.717L826.648 850.809L176 547.8L295.679 536.549L544.673 558.106L785.501 517.233L787.451 515.195L786.884 513.419L652.78 507.67L654.395 505.515L666.753 500.77L667.321 497.16L757.842 417.096L897.61 363H1226.82H1437.36L1538.91 497.16H1350.52L1136.69 516.854H923.142L898.44 578.179L897.61 582.575L1207.32 599.736L1500.17 593.783Z" fill="url(#paint6_linear_4_7)"/>
</g>
<defs>
<linearGradient id="paint0_linear_4_7" x1="409.695" y1="22.1345" x2="521.791" y2="946.881" gradientUnits="userSpaceOnUse">
<stop stop-color="#7906D2"/>
<stop offset="0.145833" stop-color="#4020D2"/>
<stop offset="1" stop-color="#08D2D2"/>
</linearGradient>
<linearGradient id="paint1_linear_4_7" x1="409.695" y1="22.1345" x2="521.791" y2="946.881" gradientUnits="userSpaceOnUse">
<stop stop-color="#7906D2"/>
<stop offset="0.145833" stop-color="#4020D2"/>
<stop offset="1" stop-color="#08D2D2"/>
</linearGradient>
<linearGradient id="paint2_linear_4_7" x1="765.172" y1="-16.3746" x2="765.172" y2="896.637" gradientUnits="userSpaceOnUse">
<stop stop-color="#32D7CD"/>
<stop offset="0.00751482" stop-color="#34D7CD"/>
<stop offset="0.2077" stop-color="#70E3CE"/>
<stop offset="0.4004" stop-color="#A2EDCE"/>
<stop offset="0.5808" stop-color="#C8F5CE"/>
<stop offset="0.7461" stop-color="#E4FACF"/>
<stop offset="0.8911" stop-color="#F5FECF"/>
<stop offset="1" stop-color="#FBFFCF"/>
</linearGradient>
<linearGradient id="paint3_linear_4_7" x1="281.337" y1="161.949" x2="281.337" y2="606.04" gradientUnits="userSpaceOnUse">
<stop stop-color="#48D1BA"/>
<stop offset="0.2037" stop-color="#64D5B7"/>
<stop offset="0.64" stop-color="#AAE0AE"/>
<stop offset="1" stop-color="#E9EAA7"/>
</linearGradient>
<linearGradient id="paint4_linear_4_7" x1="174.241" y1="439.113" x2="166.065" y2="650.949" gradientUnits="userSpaceOnUse">
<stop stop-color="#48D1BA"/>
<stop offset="0.2037" stop-color="#64D5B7"/>
<stop offset="0.64" stop-color="#AAE0AE"/>
<stop offset="1" stop-color="#E9EAA7"/>
</linearGradient>
<linearGradient id="paint5_linear_4_7" x1="96.8603" y1="499.115" x2="104.293" y2="928.733" gradientUnits="userSpaceOnUse">
<stop offset="0.1006" stop-color="#BBC63F"/>
<stop offset="0.2654" stop-color="#A3B540"/>
<stop offset="0.5894" stop-color="#7B9743"/>
<stop offset="0.8455" stop-color="#618444"/>
<stop offset="1" stop-color="#587D45"/>
</linearGradient>
<linearGradient id="paint6_linear_4_7" x1="820.96" y1="409.091" x2="851.063" y2="693.396" gradientUnits="userSpaceOnUse">
<stop offset="0.0548" stop-color="#E8E2C3"/>
<stop offset="0.2617" stop-color="#E8CFA5"/>
<stop offset="0.2785" stop-color="#E8CDA2"/>
<stop offset="0.3737" stop-color="#C7B599"/>
<stop offset="0.503" stop-color="#A2998E"/>
<stop offset="0.632" stop-color="#848385"/>
<stop offset="0.7589" stop-color="#6F747F"/>
<stop offset="0.8827" stop-color="#626A7B"/>
<stop offset="1" stop-color="#5E677A"/>
</linearGradient>
</defs>
</svg>
